<?xml version="1.0" standalone="no"?>
<!DOCTYPE svg PUBLIC "-//W3C//DTD SVG 20010904//EN"
 "http://www.w3.org/TR/2001/REC-SVG-20010904/DTD/svg10.dtd">
<svg version="1.0" xmlns="http://www.w3.org/2000/svg"
 width="182.000000pt" height="182.000000pt" viewBox="0 0 182.000000 182.000000"
 preserveAspectRatio="xMidYMid meet">
<metadata>
Created by potrace 1.11, written by Peter Selinger 2001-2013
</metadata>
<g transform="translate(0.000000,182.000000) scale(0.100000,-0.100000)"
fill="#000000" stroke="none">
<path d="M798 1805 c-2 -2 -23 -6 -48 -10 -25 -4 -50 -11 -56 -16 -6 -5 -13
-7 -16 -4 -10 11 -165 -50 -180 -70 -4 -5 -8 -7 -8 -2 0 8 -82 -41 -91 -55 -3
-5 -10 -10 -15 -9 -18 0 -176 -146 -175 -163 0 -3 -12 -18 -27 -34 -33 -35
-94 -147 -85 -156 4 -3 2 -6 -4 -6 -16 0 -63 -140 -81 -245 -8 -48 -8 -207 1
-245 5 -19 10 -48 13 -65 2 -16 7 -37 11 -45 8 -18 7 -16 17 -58 4 -17 11 -32
15 -32 4 0 8 -7 8 -15 0 -21 35 -95 45 -95 4 0 7 -3 6 -7 -7 -21 145 -211 163
-206 5 2 8 -1 6 -6 -1 -5 16 -23 38 -40 22 -17 45 -35 50 -39 30 -24 62 -41
68 -35 4 3 7 1 7 -5 0 -15 137 -76 199 -88 13 -3 31 -9 40 -13 9 -5 26 -7 39
-6 12 1 22 -1 22 -4 0 -6 19 -8 115 -12 64 -2 196 10 225 21 3 1 10 3 15 5 6
1 12 3 15 4 3 1 16 4 29 7 48 9 181 72 181 86 0 6 3 8 6 5 8 -8 64 24 64 35 0
4 7 8 15 8 16 0 209 189 201 197 -2 3 5 15 16 28 11 13 19 26 18 30 -1 4 3 11
8 14 11 7 62 115 85 181 43 119 53 315 23 457 -13 66 -61 202 -75 213 -3 3 -7
12 -9 20 -2 8 -8 17 -13 18 -5 2 -7 8 -3 13 3 5 0 9 -5 9 -6 0 -11 6 -11 14 0
7 -11 25 -25 40 -14 15 -25 29 -25 32 0 17 -107 121 -185 179 -68 50 -190 115
-217 115 -8 0 -18 4 -23 9 -21 19 -165 44 -272 46 -62 1 -114 1 -115 0z"/>
</g>
</svg>
